<svg clip-rule="evenodd" fill-rule="evenodd" height="512" image-rendering="optimizeQuality" shape-rendering="geometricPrecision" text-rendering="geometricPrecision" viewBox="0 0 850 850" width="512" xmlns="http://www.w3.org/2000/svg" xmlns:xlink="http://www.w3.org/1999/xlink"><linearGradient id="id0" gradientUnits="userSpaceOnUse" x1="425" x2="425" y1="850" y2="0"><stop offset="0" stop-color="#1aa8dc"/><stop offset=".490196" stop-color="#ae3b89"/><stop offset="1" stop-color="#f26270"/></linearGradient><g id="Layer_x0020_1"><circle cx="425" cy="425" fill="url(#id0)" r="425"/><g id="_470042224"><g><path d="m651 562h-452c-16 0-30-13-30-29v-305c0-17 14-30 30-30h452c17 0 30 13 30 30v305c0 16-13 29-30 29zm-452-349c-8 0-15 6-15 15v305c0 8 7 15 15 15h452c9 0 15-7 15-15v-305c0-9-6-15-15-15z" fill="#fefefe"/></g><g><path d="m367 652s-1 0-2-1c-3 0-6-5-5-8l22-90c1-3 5-6 9-5s6 5 6 9l-23 89c-1 4-4 6-7 6zm116 0c-3 0-6-2-7-6l-22-89c-1-4 1-8 5-9s8 2 9 6l22 89c1 4-1 8-5 9-1 0-1 0-2 0z" fill="#fefefe"/></g><g><path d="m535 652h-220c-5 0-8-3-8-8 0-4 3-7 8-7h220c5 0 8 3 8 7 0 5-3 8-8 8z" fill="#fefefe"/></g><g><path d="m674 506h-498c-4 0-7-3-7-8 0-4 3-7 7-7h498c4 0 7 3 7 7 0 5-3 8-7 8z" fill="#fefefe"/></g><g><path d="m631 534h-14c-5 0-8-3-8-7s3-8 8-8h14c4 0 8 4 8 8s-4 7-8 7z" fill="#fefefe"/></g><g><g><path d="m318 506c-4 0-8-3-8-8v-136h-83v136c0 5-3 8-7 8s-8-3-8-8v-143c0-4 4-8 8-8h97c5 0 8 4 8 8v143c0 5-3 8-7 8z" fill="#fefefe"/></g><g><path d="m318 362c-4 0-8-3-8-7v-18l-42-79-41 79v18c0 4-4 7-8 7s-6-3-6-7v-20c0-1 0-3 1-3l48-93c1-2 3-3 6-3s5 1 7 3l49 93c1 1 1 2 1 3v20c0 4-3 7-7 7z" fill="#fefefe"/></g><g><path d="m268 295c-7 0-16-1-24-3-3-2-6-6-5-9 2-4 6-6 9-5 14 4 28 3 40 0 4-2 8 0 10 5 1 3-1 7-5 9-8 2-16 3-25 3z" fill="#fefefe"/></g><g><path d="m250 506c-4 0-7-3-7-8v-115c0-4 3-7 7-7s8 3 8 7v115c0 5-4 8-8 8z" fill="#fefefe"/></g><g><path d="m288 506c-5 0-8-3-8-8v-115c0-4 3-7 8-7 4 0 7 3 7 7v115c0 5-3 8-7 8z" fill="#fefefe"/></g></g><g><path d="m590 506c-4 0-8-3-8-8v-54c0-4 4-7 8-7s7 3 7 7v54c0 5-3 8-7 8zm-105 0c-4 0-8-3-8-8v-54c0-4 4-7 8-7s7 3 7 7v54c0 5-3 8-7 8z" fill="#fefefe"/></g><g><path d="m590 452h-105c-3 0-5-1-7-4l-39-71c-2-3-2-5 0-8l92-131c2-2 4-2 6-2 3 0 5 1 6 2l93 131c2 3 2 6 0 8l-40 71c-1 3-3 4-6 4zm-101-15h97l36-63-84-119-85 119z" fill="#fefefe"/></g><g><path d="m538 351c-5 0-8-4-8-8v-100c0-5 3-8 8-8 4 0 7 3 7 8v101c0 4-4 7-7 7z" fill="#fefefe"/></g><g><path d="m538 388c-15 0-26-12-26-26s11-25 26-25c14 0 25 11 25 25 0 15-11 26-25 26zm0-37c-7 0-11 5-11 11s5 11 11 11 11-5 11-11-5-11-11-11z" fill="#fefefe"/></g><g><path d="m590 479h-65c-4 0-7-3-7-8 0-4 3-7 7-7h65c4 0 7 3 7 7 0 5-3 8-7 8z" fill="#fefefe"/></g><g><g><path d="m399 506h-25c-4 0-7-3-7-7l-12-130c0-2 1-4 2-5 2-1 4-2 6-2h47c2 0 4 0 6 2 1 2 2 3 2 5l-11 130c-1 4-4 7-8 7zm-19-15h13l9-115h-31z" fill="#fefefe"/></g><g><path d="m410 376h-48c-2 0-4-1-5-2-2-2-2-4-2-7l9-46c0-3 3-5 5-6 3 0 5 0 7 2 6 6 14 6 21 2 2-2 5-2 7-1s3 3 4 5l9 44c1 2 0 5-1 7-2 1-4 2-6 2zm-38-14h30l-6-27c-6 2-13 2-19-1z" fill="#fefefe"/></g><g><path d="m388 336c-14 0-30-9-37-37-7-32 18-55 32-63 3-1 5-1 8 1 2 1 3 4 3 6-2 30 24 39 24 39 3 1 5 3 5 7 1 28-14 45-31 47-1 0-2 0-4 0zm-8-80c-8 8-19 22-15 40 4 17 14 27 25 26 9-2 18-12 18-28-10-6-24-17-28-38z" fill="#fefefe"/></g></g></g></g></svg>