<svg fill="none" height="64" viewBox="0 0 64 64" width="64" xmlns="http://www.w3.org/2000/svg" xmlns:xlink="http://www.w3.org/1999/xlink"><linearGradient id="paint0_linear_1792_3533" gradientUnits="userSpaceOnUse" x1="9.5" x2="48" y1="2" y2="52"><stop offset="0" stop-color="#fa1228"/><stop offset=".901177" stop-color="#5a00d1"/></linearGradient><path clip-rule="evenodd" d="m11.9037 6.00798c-2.2038-.08133-3.65425.46291-4.54359 1.35225s-1.43357 2.33979-1.35224 4.54357c.08146 2.2075.79245 4.9632 2.16487 8.1117 1.17338 2.6919 2.79866 5.5988 4.82836 8.5978 2.1795-2.7754 4.6419-5.5557 7.3491-8.263 2.7073-2.7072 5.4876-5.1696 8.2629-7.3491-2.9989-2.0297-5.9058-3.65497-8.5977-4.82835-3.1485-1.37241-5.9042-2.0834-8.1117-2.16487zm20.0963 4.47112c-3.5811-2.52183-7.1001-4.54061-10.3863-5.97303-3.4186-1.49018-6.684-2.38914-9.5625-2.49537-2.88208-.10636-5.58239.58398-7.51952 2.5211-1.93712 1.93712-2.62746 4.63744-2.52109 7.5196.10622 2.8784 1.00519 6.1438 2.49536 9.5625 1.43242 3.2861 3.45121 6.8051 5.97305 10.3862-2.52184 3.581-4.54063 7.1001-5.97305 10.3862-1.49018 3.4186-2.38914 6.684-2.49537 9.5625-.10636 2.8821.58397 5.5824 2.5211 7.5196 1.93712 1.9371 4.63744 2.6274 7.51952 2.521 2.8785-.1062 6.1439-1.0051 9.5625-2.4953 3.2862-1.4324 6.8052-3.4512 10.3863-5.9731 3.581 2.5219 7.1 4.5407 10.3862 5.9731 3.4186 1.4902 6.684 2.3891 9.5625 2.4954 2.8821.1063 5.5824-.584 7.5195-2.5211 1.9372-1.9372 2.6275-4.6375 2.5211-7.5196-.1062-2.8785-1.0052-6.1439-2.4953-9.5625-1.4325-3.2861-3.4512-6.8052-5.9731-10.3862 2.5219-3.5811 4.5406-7.1001 5.9731-10.3862 1.4901-3.4187 2.3891-6.6841 2.4953-9.5625.1064-2.88216-.5839-5.58248-2.5211-7.5196-1.9371-1.93712-4.6374-2.62746-7.5195-2.5211-2.8785.10623-6.1439 1.00519-9.5625 2.49537-3.2862 1.43242-6.8052 3.4512-10.3862 5.97303zm0 4.959c-2.9343 2.2363-5.9113 4.8306-8.8214 7.7407-2.91 2.91-5.5043 5.887-7.7406 8.8213 2.2363 2.9343 4.8306 5.9112 7.7406 8.8213 2.9101 2.9101 5.8871 5.5043 8.8214 7.7406 2.9342-2.2363 5.9112-4.8305 8.8213-7.7406 2.91-2.9101 5.5043-5.887 7.7406-8.8213-2.2363-2.9343-4.8306-5.9113-7.7406-8.8213-2.9101-2.9101-5.887-5.5044-8.8213-7.7407zm18.9988 13.1752c-2.1794-2.7754-4.6418-5.5557-7.3491-8.263-2.7073-2.7072-5.4876-5.1696-8.2629-7.3491 2.9989-2.0297 5.9059-3.65497 8.5977-4.82835 3.1485-1.37241 5.9042-2.0834 8.1117-2.16487 2.2038-.08133 3.6543.46291 4.5436 1.35225s1.4336 2.33979 1.3523 4.54357c-.0815 2.2075-.7925 4.9632-2.1649 8.1117-1.1734 2.6919-2.7986 5.5988-4.8284 8.5978zm0 6.7736c-2.1794 2.7753-4.6418 5.5557-7.3491 8.2629-2.7073 2.7073-5.4876 5.1697-8.2629 7.3491 2.9989 2.0298 5.9059 3.655 8.5977 4.8284 3.1485 1.3724 5.9042 2.0834 8.1117 2.1649 2.2038.0813 3.6543-.4629 4.5436-1.3523.8893-.8893 1.4336-2.3398 1.3523-4.5436-.0815-2.2074-.7925-4.9632-2.1649-8.1117-1.1734-2.6918-2.7986-5.5988-4.8284-8.5977zm-22.3857 15.612c-2.7753-2.1794-5.5556-4.6418-8.2629-7.3491-2.7072-2.7072-5.1696-5.4876-7.3491-8.2629-2.0297 2.9989-3.65499 5.9059-4.82837 8.5977-1.37241 3.1485-2.08341 5.9043-2.16487 8.1117-.08133 2.2038.46291 3.6543 1.35224 4.5436.88934.8894 2.3398 1.4336 4.5436 1.3523 2.2075-.0815 4.9632-.7925 8.1117-2.1649 2.6919-1.1734 5.5988-2.7986 8.5977-4.8284zm3.3869-23.9989c-2.7614 0-5 2.2386-5 5s2.2386 5 5 5 5-2.2386 5-5-2.2386-5-5-5zm-9 5c0-4.9706 4.0294-9 9-9s9 4.0294 9 9-4.0294 9-9 9-9-4.0294-9-9z" fill="url(#paint0_linear_1792_3533)" fill-rule="evenodd"/></svg>