<svg id="Capa_1" enable-background="new 0 0 512 512" height="512" viewBox="0 0 512 512" width="512" xmlns="http://www.w3.org/2000/svg"><g fill="#32373c"><path d="m256 15.36c66.681 0 131.072 29.479 176.795 77.516 41.234 43.321 63.845 103.596 63.845 163.124 0 62.322-26.218 125.895-70.482 170.158-44.788 44.787-106.867 70.482-170.158 70.482-32.493 0-64.006-6.36-93.663-18.904-56.649-23.96-104.016-71.195-128.073-128.073-12.544-29.657-18.904-61.17-18.904-93.663s6.36-64.006 18.904-93.663c24.051-56.864 70.936-103.906 128.072-128.072 29.658-12.545 61.171-18.905 93.664-18.905m0-15.36c-141.385 0-256 114.615-256 256s114.615 256 256 256 256-114.615 256-256-114.615-256-256-256z"/><path d="m42.667 255.992c0 84.438 49.068 157.415 120.238 191.991l-101.766-278.81c-11.837 26.529-18.472 55.89-18.472 86.819z"/><path d="m400.018 245.233c0-26.373-9.473-44.627-17.587-58.833-10.815-17.581-20.956-32.455-20.956-50.035 0-19.607 14.869-37.861 35.825-37.861.947 0 1.843.114 2.762.173-37.955-34.777-88.523-56.01-144.062-56.01-74.534 0-140.1 38.243-178.246 96.152 5.009.159 9.729.259 13.73.259 22.309 0 56.858-2.712 56.858-2.712 11.494-.673 12.853 16.222 1.364 17.58 0 0-11.561 1.354-24.414 2.027l77.683 231.078 46.692-140.014-33.235-91.064c-11.494-.673-22.376-2.027-22.376-2.027-11.5-.679-10.152-18.254 1.353-17.58 0 0 35.223 2.712 56.184 2.712 22.309 0 56.864-2.712 56.864-2.712 11.5-.673 12.853 16.222 1.359 17.58 0 0-11.572 1.354-24.414 2.027l77.098 229.318 22.008-69.736c9.778-30.476 15.51-52.068 15.51-70.322z"/><path d="m259.748 274.652-64.018 185.988c19.118 5.625 39.331 8.693 60.27 8.693 24.843 0 48.675-4.288 70.847-12.095-.571-.913-1.097-1.882-1.531-2.94z"/><path d="m443.207 153.65c.916 6.794 1.434 14.083 1.434 21.935 0 21.64-4.055 45.975-16.228 76.408l-65.156 188.389c63.424-36.976 106.076-105.688 106.076-184.39 0-37.09-9.478-71.959-26.126-102.342z"/></g></svg>